<svg width="200" height="60" viewBox="0 0 200 60" fill="none" xmlns="http://www.w3.org/2000/svg">
  <!-- CFF Text -->
  <path d="M15.912,41.68c-4.064,0-7.336-1.192-9.816-3.576C3.624,35.72,2.384,32.512,2.384,28.48c0-4.032,1.248-7.24,3.744-9.624c2.496-2.384,5.816-3.576,9.96-3.576c2.496,0,4.672,0.4,6.528,1.2c1.856,0.8,3.28,1.936,4.272,3.408l-4.416,4.032c-1.44-1.856-3.352-2.784-5.736-2.784c-2.208,0-3.968,0.712-5.28,2.136c-1.312,1.424-1.968,3.312-1.968,5.664c0,2.352,0.656,4.24,1.968,5.664c1.312,1.424,3.064,2.136,5.256,2.136c2.384,0,4.312-0.944,5.784-2.832l4.416,4.032c-1.008,1.504-2.448,2.664-4.32,3.48C20.728,41.272,18.504,41.68,15.912,41.68z" fill="#FFFFFF"/>
  <path d="M51.304,41.68c-4.064,0-7.336-1.192-9.816-3.576c-2.472-2.384-3.708-5.592-3.708-9.624c0-4.032,1.248-7.24,3.744-9.624c2.496-2.384,5.816-3.576,9.96-3.576c2.496,0,4.672,0.4,6.528,1.2c1.856,0.8,3.28,1.936,4.272,3.408l-4.416,4.032c-1.44-1.856-3.352-2.784-5.736-2.784c-2.208,0-3.968,0.712-5.28,2.136c-1.312,1.424-1.968,3.312-1.968,5.664c0,2.352,0.656,4.24,1.968,5.664c1.312,1.424,3.064,2.136,5.256,2.136c2.384,0,4.312-0.944,5.784-2.832l4.416,4.032c-1.008,1.504-2.448,2.664-4.32,3.48C56.12,41.272,53.896,41.68,51.304,41.68z" fill="#FFFFFF"/>
  <path d="M86.696,41.68c-4.064,0-7.336-1.192-9.816-3.576c-2.472-2.384-3.708-5.592-3.708-9.624c0-4.032,1.248-7.24,3.744-9.624c2.496-2.384,5.816-3.576,9.96-3.576c2.496,0,4.672,0.4,6.528,1.2c1.856,0.8,3.28,1.936,4.272,3.408l-4.416,4.032c-1.44-1.856-3.352-2.784-5.736-2.784c-2.208,0-3.968,0.712-5.28,2.136c-1.312,1.424-1.968,3.312-1.968,5.664c0,2.352,0.656,4.24,1.968,5.664c1.312,1.424,3.064,2.136,5.256,2.136c2.384,0,4.312-0.944,5.784-2.832l4.416,4.032c-1.008,1.504-2.448,2.664-4.32,3.48C91.512,41.272,89.288,41.68,86.696,41.68z" fill="#FFFFFF"/>
  
  <!-- Tagline Text -->
  <path d="M118,41.416V15.856h6.192v25.56H118z" fill="#FFFFFF"/>
  <path d="M129.896,41.416V15.856h6.192v25.56H129.896z" fill="#FFFFFF"/>
  
  <!-- Plant Icon -->
  <path d="M160,10c-2.5,0-4.5,2-4.5,4.5c0,1.5,0.75,2.863,1.875,3.656C153.25,19.625,150,23.5,150,30c0,8.25,6.75,15,15,15s15-6.75,15-15c0-6.5-3.25-10.375-7.375-11.844C173.75,17.363,174.5,16,174.5,14.5c0-2.5-2-4.5-4.5-4.5c-1.5,0-2.875,0.75-3.75,1.875C165.375,10.75,164,10,162.5,10H160z" fill="#FFFFFF"/>
  <path d="M165,35c-1.375,0-2.5-1.125-2.5-2.5c0-6.25,2.5-10,5-10c1.375,0,2.5,1.125,2.5,2.5C170,31.25,167.5,35,165,35z" fill="#FFFFFF"/>
  
  <!-- UK Text -->
  <path d="M183.864,23.976V15.856h6.192v8.256c0,3.84,1.536,5.76,4.608,5.76c3.072,0,4.608-1.92,4.608-5.76v-8.256h6.12v8.16c0,3.904-1.088,6.888-3.264,8.952c-2.176,2.064-5.184,3.096-9.024,3.096c-3.84,0-6.864-1.024-9.072-3.072C184.968,30.912,183.864,27.92,183.864,23.976z" fill="#FFFFFF"/>
  <path d="M163.872,41.416l7.272-12.912l-6.84-12.648h6.984l3.456,7.272l3.456-7.272h6.552l-6.768,12.36l7.2,13.2h-7.056l-3.744-7.704l-3.744,7.704H163.872z" fill="#FFFFFF"/>
</svg> 